<?xml version="1.0" encoding="utf-8"?>
<!-- Generator: Adobe Illustrator 28.1.0, SVG Export Plug-In . SVG Version: 6.00 Build 0)  -->
<svg version="1.1" id="Layer_1" xmlns="http://www.w3.org/2000/svg" xmlns:xlink="http://www.w3.org/1999/xlink" x="0px" y="0px"
	 viewBox="0 0 600 600" style="enable-background:new 0 0 600 600;" xml:space="preserve">
<style type="text/css">
	.st0{clip-path:url(#SVGID_00000064333822581959409920000000810248594036959618_);}
	.st1{clip-path:url(#SVGID_00000181052709449308418840000016501430044904957605_);}
	.st2{fill-rule:evenodd;clip-rule:evenodd;fill:#FEC143;}
	.st3{fill:#FDC143;}
	
		.st4{clip-path:url(#SVGID_00000181052709449308418840000016501430044904957605_);fill-rule:evenodd;clip-rule:evenodd;fill:#FEC143;}
</style>
<g>
	<g>
		<g>
			<g>
				<defs>
					
						<rect id="SVGID_1_" x="124.8" y="51.5" transform="matrix(0.9751 -0.2218 0.2218 0.9751 -58.6996 75.9399)" width="367.8" height="495.5"/>
				</defs>
				<clipPath id="SVGID_00000103234574271653729670000001956202323256179380_">
					<use xlink:href="#SVGID_1_"  style="overflow:visible;"/>
				</clipPath>
				<g style="clip-path:url(#SVGID_00000103234574271653729670000001956202323256179380_);">
					<defs>
						
							<rect id="SVGID_00000171681988466619062040000007202073969859340717_" x="124.8" y="51.5" transform="matrix(0.9751 -0.2218 0.2218 0.9751 -58.6996 75.9399)" width="367.8" height="495.5"/>
					</defs>
					<clipPath id="SVGID_00000026131772137535228630000017600673750983582640_">
						<use xlink:href="#SVGID_00000171681988466619062040000007202073969859340717_"  style="overflow:visible;"/>
					</clipPath>
					<g style="clip-path:url(#SVGID_00000026131772137535228630000017600673750983582640_);">
						<path class="st2" d="M194.6,565.2l332-75.5L422.7,33.2l-332,75.5L194.6,565.2z M536.2,501.4L191,579.9
							c-3.8,0.9-7.2-1.3-8.1-5.1L76,105.1c-0.9-3.8,1.3-7.2,5.1-8.1l345.2-78.5c3.8-0.9,7.2,1.3,8.1,5.1l106.9,469.7
							C542.2,497,540,500.5,536.2,501.4z"/>
						<path class="st3" d="M189.4,581.6c-3.8,0-7-2.5-7.9-6.5L74.6,105.4c-1-4.6,1.6-8.9,6.2-9.9L426,17c4.6-1,8.9,1.6,9.9,6.2
							l106.9,469.7c0.5,2.2,0.1,4.4-1,6.3s-3,3.1-5.2,3.6l-345.2,78.5C190.7,581.5,190,581.6,189.4,581.6z M428,19.8
							c-0.4,0-0.9,0-1.3,0.1L81.5,98.4c-3,0.7-4.6,3.3-4,6.3l106.9,469.7c0.7,3,3.3,4.7,6.3,4l345.2-78.5c3-0.7,4.6-3.3,4-6.3
							L433,23.9C432.4,21.3,430.4,19.8,428,19.8z M193.5,567l-0.3-1.5l-104.2-458l1.5-0.3l333.5-75.9l0.3,1.5l104.2,458l-1.5,0.3
							L193.5,567z M92.5,109.8l103.2,453.6l329.1-74.9L421.6,35L92.5,109.8z"/>
					</g>
					
						<path style="clip-path:url(#SVGID_00000026131772137535228630000017600673750983582640_);fill-rule:evenodd;clip-rule:evenodd;fill:#FEC143;" d="
						M214.3,533.9l282-64.2L404,64.2l-282,64.2L214.3,533.9z M505.9,481.5l-295.2,67.2c-3.8,0.9-7.2-1.3-8.1-5.1l-95.3-418.8
						c-0.9-3.8,1.3-7.2,5.1-8.1l295.2-67.2c3.8-0.9,7.2,1.3,8.1,5.1L511,473.4C511.8,477.1,509.7,480.6,505.9,481.5z"/>
					
						<path style="clip-path:url(#SVGID_00000026131772137535228630000017600673750983582640_);fill-rule:evenodd;clip-rule:evenodd;fill:#FEC143;" d="
						M437.3,184.6l-294.3,66.9c-3.8,0.9-7.2-1.3-8.1-5.1c-0.9-3.8,1.3-7.2,5.1-8.1l294.3-66.9c3.8-0.9,7.2,1.3,8.1,5.1
						C443.3,180.3,441.1,183.7,437.3,184.6z"/>
					
						<path style="clip-path:url(#SVGID_00000026131772137535228630000017600673750983582640_);fill-rule:evenodd;clip-rule:evenodd;fill:#FEC143;" d="
						M190.9,200c-1.9,0.4-4.9,0.1-6.3-1.5l-34.2-36.9c-2.7-3.3-2.7-7.3,0.7-10.1c2.4-2.5,6.4-2.4,9.1,0.9l26.2,27.8l12.3-37.5
						c1.2-3.3,4.8-5.1,9-4c3.3,1.2,5.1,4.8,4,9l-15.8,48.2C195.4,198,193.7,199.3,190.9,200z"/>
					
						<path style="clip-path:url(#SVGID_00000026131772137535228630000017600673750983582640_);fill-rule:evenodd;clip-rule:evenodd;fill:#FEC143;" d="
						M250.2,133.9c-10.4,2.4-16.9,12.8-14.6,23.2c2.4,10.4,12.6,16,22.9,13.6c10.4-2.4,16.2-11.6,13.8-22
						C270.1,138.3,259.7,131.8,250.2,133.9z M261.6,183.9c-17.9,4.1-35.3-6.9-39.1-23.8c-4.1-17.9,6.9-35.3,24.8-39.4
						c17-3.9,34.3,7.1,38.4,25C289.5,162.7,279.5,179.8,261.6,183.9z"/>
					
						<path style="clip-path:url(#SVGID_00000026131772137535228630000017600673750983582640_);fill-rule:evenodd;clip-rule:evenodd;fill:#FEC143;" d="
						M341.9,118l-45.3,10.3c-3.8,0.9-7.2-1.3-8.1-5.1c-0.9-3.8,1.3-7.2,5.1-8.1l45.3-10.3c3.8-0.9,7.2,1.3,8.1,5.1
						C347.8,113.7,345.6,117.2,341.9,118z"/>
					
						<path style="clip-path:url(#SVGID_00000026131772137535228630000017600673750983582640_);fill-rule:evenodd;clip-rule:evenodd;fill:#FEC143;" d="
						M330.6,173.2c-3.8,0.9-7.2-1.3-8.1-5.1l-11.4-50c-0.9-3.8,1.3-7.2,5.1-8.1c3.8-0.9,7.2,1.3,8.1,5.1l11.4,50
						C336.6,168.8,334.4,172.3,330.6,173.2z"/>
					
						<path style="clip-path:url(#SVGID_00000026131772137535228630000017600673750983582640_);fill-rule:evenodd;clip-rule:evenodd;fill:#FEC143;" d="
						M384.9,133l-17,3.9c-3.8,0.9-7.2-1.3-8.1-5.1c-0.9-3.8,1.3-7.2,5.1-8.1l17-3.9c3.8-0.9,7.2,1.3,8.1,5.1
						C390.9,128.7,388.7,132.2,384.9,133z"/>
					
						<path style="clip-path:url(#SVGID_00000026131772137535228630000017600673750983582640_);fill-rule:evenodd;clip-rule:evenodd;fill:#FEC143;" d="
						M397.1,156l-23.6,5.4c-3.8,0.9-7.2-1.3-8.1-5.1l-11.4-50c-0.9-3.8,1.3-7.2,5.1-8.1l23.6-5.4c3.8-0.9,7.2,1.3,8.1,5.1
						c0.9,3.8-1.3,7.2-5.1,8.1l-17,3.9l8.4,36.8l17-3.9c3.8-0.9,7.2,1.3,8.1,5.1C403.1,151.7,400.9,155.2,397.1,156z"/>
					
						<path style="clip-path:url(#SVGID_00000026131772137535228630000017600673750983582640_);fill-rule:evenodd;clip-rule:evenodd;fill:#FEC143;" d="
						M423.7,229.3l-173.5,39.5c-3.8,0.9-7.2-1.3-8.1-5.1c-0.9-3.8,1.3-7.2,5.1-8.1l173.5-39.5c3.8-0.9,7.2,1.3,8.1,5.1
						C429.7,225,427.5,228.5,423.7,229.3z"/>
					
						<path style="clip-path:url(#SVGID_00000026131772137535228630000017600673750983582640_);fill-rule:evenodd;clip-rule:evenodd;fill:#FEC143;" d="
						M436.2,284l-173.5,39.5c-3.8,0.9-7.2-1.3-8.1-5.1c-0.9-3.8,1.3-7.2,5.1-8.1l173.5-39.5c3.8-0.9,7.2,1.3,8.1,5.1
						C442.1,279.7,439.9,283.2,436.2,284z"/>
					
						<path style="clip-path:url(#SVGID_00000026131772137535228630000017600673750983582640_);fill-rule:evenodd;clip-rule:evenodd;fill:#FEC143;" d="
						M448.6,338.8l-173.5,39.5c-3.8,0.9-7.2-1.3-8.1-5.1c-0.9-3.8,1.3-7.2,5.1-8.1l173.5-39.5c3.8-0.9,7.2,1.3,8.1,5.1
						C454.6,334.4,452.4,337.9,448.6,338.8z"/>
					
						<path style="clip-path:url(#SVGID_00000026131772137535228630000017600673750983582640_);fill-rule:evenodd;clip-rule:evenodd;fill:#FEC143;" d="
						M460.8,392.5L287.3,432c-3.8,0.9-7.2-1.3-8.1-5.1c-0.9-3.8,1.3-7.2,5.1-8.1l173.5-39.5c3.8-0.9,7.2,1.3,8.1,5.1
						C466.8,388.2,464.6,391.7,460.8,392.5z"/>
					
						<path style="clip-path:url(#SVGID_00000026131772137535228630000017600673750983582640_);fill-rule:evenodd;clip-rule:evenodd;fill:#FEC143;" d="
						M473.3,447.2l-173.5,39.5c-3.8,0.9-7.2-1.3-8.1-5.1c-0.9-3.8,1.3-7.2,5.1-8.1L470.3,434c3.8-0.9,7.2,1.3,8.1,5.1
						C479.2,442.9,477.1,446.4,473.3,447.2z"/>
					
						<path style="clip-path:url(#SVGID_00000026131772137535228630000017600673750983582640_);fill-rule:evenodd;clip-rule:evenodd;fill:#FEC143;" d="
						M194.7,351.9c-1.9,0.4-4-0.1-5.1-0.8c-3.5-2.2-4.3-6-2.1-9.4l18.9-30.1c2.2-3.5,6-4.3,9.4-2.1c3.5,2.2,4.3,6,2.1,9.4L199,348.9
						C198.2,350.1,196.6,351.5,194.7,351.9z"/>
					
						<path style="clip-path:url(#SVGID_00000026131772137535228630000017600673750983582640_);fill-rule:evenodd;clip-rule:evenodd;fill:#FEC143;" d="
						M219.2,346.3c-1.9,0.4-4-0.1-5.1-0.8L184,326.5c-3.5-2.2-4.3-6-2.1-9.4c2.2-3.5,6-4.3,9.4-2.1l30.1,18.9c3.5,2.2,4.3,6,2.1,9.4
						C222.8,344.5,221.1,345.9,219.2,346.3z"/>
					
						<path style="clip-path:url(#SVGID_00000026131772137535228630000017600673750983582640_);fill-rule:evenodd;clip-rule:evenodd;fill:#FEC143;" d="
						M186.2,297.3c-1.9,0.4-4-0.1-5.1-0.8l-10.4-6.6c-3.5-2.2-4.3-6-2.1-9.4c2.2-3.5,6-4.3,9.4-2.1l4.6,2.9l16-25.5
						c2.2-3.5,6-4.3,9.4-2.1c3.5,2.2,4.3,6,2.1,9.4l-19.7,31.3C189.8,295.5,188.1,296.8,186.2,297.3z"/>
					
						<path style="clip-path:url(#SVGID_00000026131772137535228630000017600673750983582640_);fill-rule:evenodd;clip-rule:evenodd;fill:#FEC143;" d="
						M210.9,405.7c-1.9,0.4-4-0.1-5.1-0.8l-10.4-6.6c-3.5-2.2-4.3-6-2.1-9.4c2.2-3.5,6-4.3,9.4-2.1l4.6,2.9l16-25.5
						c2.2-3.5,6-4.3,9.4-2.1c3.5,2.2,4.3,6,2.1,9.4l-19.7,31.3C214.5,403.9,212.8,405.3,210.9,405.7z"/>
					
						<path style="clip-path:url(#SVGID_00000026131772137535228630000017600673750983582640_);fill-rule:evenodd;clip-rule:evenodd;fill:#FEC143;" d="
						M223.3,460.4c-1.9,0.4-4-0.1-5.1-0.8l-10.4-6.6c-3.5-2.2-4.3-6-2.1-9.4c2.2-3.5,6-4.3,9.4-2.1l4.6,2.9l15.8-26.4
						c2.2-3.5,6-4.3,9.4-2.1c3.5,2.2,4.3,6,2.1,9.4l-19.5,32.2C226.9,458.6,225.2,460,223.3,460.4z"/>
					
						<path style="clip-path:url(#SVGID_00000026131772137535228630000017600673750983582640_);fill-rule:evenodd;clip-rule:evenodd;fill:#FEC143;" d="
						M235.8,515.1c-1.9,0.4-4-0.1-5.1-0.8l-10.6-7.5c-3.5-2.2-4.5-6.9-2.1-9.4c2.2-3.5,6.9-4.5,9.4-2.1l4.8,3.9l15.8-26.4
						c2.2-3.5,6-4.3,9.4-2.1c3.5,2.2,4.3,6,2.1,9.4l-19.5,32.2C239.3,513.3,237.7,514.7,235.8,515.1z"/>
				</g>
			</g>
		</g>
	</g>
</g>
</svg>
