<?xml version="1.0" encoding="utf-8"?>
<!-- Generator: Adobe Illustrator 28.1.0, SVG Export Plug-In . SVG Version: 6.00 Build 0)  -->
<svg version="1.1" id="Layer_1" xmlns="http://www.w3.org/2000/svg" xmlns:xlink="http://www.w3.org/1999/xlink" x="0px" y="0px"
	 viewBox="0 0 600 600" style="enable-background:new 0 0 600 600;" xml:space="preserve">
<style type="text/css">
	.st0{fill:#FEC143;}
	.st1{clip-path:url(#SVGID_00000099654560258115407150000017918686787294619800_);fill:#FEC143;}
</style>
<g>
	<path class="st0" d="M389,243.6l1.2,11.4c3.8-0.4,7.7-0.6,11.6-0.6c3.3,0,6.6,0.1,10,0.4l0.9-11.5c-3.7-0.3-7.3-0.4-10.9-0.4
		C397.5,242.9,393.2,243.2,389,243.6"/>
	<path class="st0" d="M343.8,257.8l6,9.9c6.2-3.5,12.7-6.4,19.5-8.5l-3.6-10.9C358,250.6,350.7,253.8,343.8,257.8"/>
	<path class="st0" d="M186.4,414.7c7.8-1.5,15.4-3.7,22.7-6.4l-4.2-10.7c-6.7,2.5-13.7,4.5-20.8,5.9L186.4,414.7"/>
	<path class="st0" d="M308.4,288.5l9.3,7.1c4.6-5.7,9.6-11,14.7-15.5l-7.9-8.5C318.9,276.6,313.5,282.3,308.4,288.5"/>
	<path class="st0" d="M140.6,405.6l-1,11.4c5.3,0.5,10.5,0.7,15.6,0.7c2.6,0,5.3-0.1,7.8-0.2l-0.6-11.5c-2.4,0.1-4.9,0.2-7.3,0.2
		C150.4,406.2,145.5,406,140.6,405.6"/>
	<path class="st0" d="M242.3,376.2c-5.7,4.6-11.7,8.7-17.8,12.2l6,9.9c6.7-3.8,13.2-8.3,19.3-13.2L242.3,376.2"/>
	<path class="st0" d="M272.2,344.9c-4.4,5.9-9.1,11.5-13.9,16.6l8.6,7.8c5.1-5.4,10.1-11.3,14.8-17.6L272.2,344.9"/>
	<path class="st0" d="M93.9,407.7c7.5,2.4,15.1,4.4,22.5,5.9l2.4-11.2c-7-1.5-14.2-3.3-21.3-5.6L93.9,407.7"/>
	<path class="st0" d="M475.2,272c6.5,2.9,13.2,6.2,19.9,9.7l5.7-10.1c-6.9-3.7-13.9-7.1-20.7-10.1L475.2,272"/>
	<path class="st0" d="M433.4,258c6.9,1.5,14,3.5,21.2,5.9l3.9-10.9c-7.6-2.6-15.2-4.7-22.5-6.3L433.4,258"/>
</g>
<g>
	<defs>
		<rect id="SVGID_1_" x="12.2" y="143.1" width="574.6" height="389.9"/>
	</defs>
	<clipPath id="SVGID_00000000184048744043983550000017224949699122425759_">
		<use xlink:href="#SVGID_1_"  style="overflow:visible;"/>
	</clipPath>
	<path style="clip-path:url(#SVGID_00000000184048744043983550000017224949699122425759_);fill:#FEC143;" d="M475.4,148.2
		l-126.5-4.7l-84.5,72.1l-20.9-3.7c-2.7,5.3-5.7,10.8-8.9,16.5l26.3,4.6l28.4,85.3c-1.6,2.9-3.2,5.7-4.9,8.5l9.5,5.5l40.2,120.9
		l-121.6-5.6l-5.3-0.2l-4.5,2.7L106,506.6L72.5,398.7l4.3-9.6c-3.2-1.4-6-2.7-8.5-3.9L33.2,272.1l65.8-42.5
		c-3.1-5.4-5.9-10.6-8.6-15.6l-78.2,50.5l83.5,268.7l115.8-67.8l137.9,6.3l91.4-84.3l146.2-9.3L475.4,148.2 M439.8,369.7l-6.3,0.4
		l-4.6,4.3l-78.3,72.3l-72.8-219l77.4-66.1l108.9,4.1l57.3,118c-0.2-0.1-0.4-0.3-0.7-0.4l-6.3,9.7c5.7,3.5,11.3,7.3,16.9,11.1
		l28.2,58.1L439.8,369.7z"/>
</g>
<g>
	<path class="st0" d="M248.1,143.2c0-45.1-36.6-81.7-81.7-81.7s-81.7,36.6-81.7,81.7c0,52.7,81.7,155.8,81.7,155.8
		S248.1,195.9,248.1,143.2 M121.9,138.1c0-24.6,19.9-44.5,44.5-44.5s44.5,19.9,44.5,44.5c0,24.6-19.9,44.5-44.5,44.5
		S121.9,162.7,121.9,138.1z"/>
</g>
</svg>
