<?xml version="1.0" encoding="utf-8"?>
<!-- Generator: Adobe Illustrator 28.1.0, SVG Export Plug-In . SVG Version: 6.00 Build 0)  -->
<svg version="1.1" id="Layer_1" xmlns="http://www.w3.org/2000/svg" xmlns:xlink="http://www.w3.org/1999/xlink" x="0px" y="0px"
	 viewBox="0 0 600 600" style="enable-background:new 0 0 600 600;" xml:space="preserve">
<style type="text/css">
	.st0{fill:#FEC143;}
	.st1{fill:#FDC143;}
</style>
<g>
	<g>
		<path class="st0" d="M34.2,225.7c0-14.1,11.5-26.5,26.5-26.5H96v35.3H77.5c-5.3,0-8.8,3.5-8.8,8.8c0,5.3,3.5,8.8,8.8,8.8H519
			c5.3,0,8.8-3.5,8.8-8.8c0-5.3-3.5-8.8-8.8-8.8h-17.7v-35.3h35.3c14.1,0,26.5,11.5,26.5,26.5v167.8c0,14.1-11.5,26.5-26.5,26.5H466
			v-26.5c0-5.3-3.5-8.8-8.8-8.8c-5.3,0-8.8,3.5-8.8,8.8v114.8H148.1V349.3h300.2v8.8c0,5.3,3.5,8.8,8.8,8.8c5.3,0,8.8-3.5,8.8-8.8
			v-17.7c0-5.3-3.5-8.8-8.8-8.8H139.3c-5.3,0-8.8,3.5-8.8,8.8V420H59.8c-14.1,0-26.5-11.5-26.5-26.5L34.2,225.7z M112.8,137.4h17.7
			v97.1h-17.7V137.4z M148.1,84.4h300.2v106c0,5.3,3.5,8.8,8.8,8.8c5.3,0,8.8-3.5,8.8-8.8v-53h17.7v97.1H148.1V84.4z M59.8,437.6
			h70.6v79.5c0,5.3,3.5,8.8,8.8,8.8h317.9c5.3,0,8.8-3.5,8.8-8.8v-79.5h70.6c23.8,0,44.2-19.4,44.2-44.2V225.7
			c0-24.7-19.4-44.2-44.2-44.2h-35.3v-53c0-5.3-3.5-8.8-8.8-8.8H466V75.6c0-5.3-3.5-8.8-8.8-8.8H139.3c-5.3,0-8.8,3.5-8.8,8.8v44.2
			H104c-5.3,0-8.8,3.5-8.8,8.8v53H59.8c-23.8,0-44.2,19.4-44.2,44.2v167.8C15.7,418.2,36,437.6,59.8,437.6z"/>
		<path class="st1" d="M457.2,527.4H139.3c-6.1,0-10.3-4.2-10.3-10.3v-78H59.8c-25.2,0-45.6-20.5-45.6-45.6V225.7
			c0-25.2,20.5-45.6,45.6-45.6h33.9v-51.5c0-6.1,4.2-10.3,10.3-10.3h25V75.6c0-6.1,4.2-10.3,10.3-10.3h317.9
			c6.1,0,10.3,4.2,10.3,10.3v42.7h25c6.1,0,10.3,4.2,10.3,10.3v51.5h33.9c25.6,0,45.6,20,45.6,45.6v167.8
			c0,25.2-20.5,45.6-45.6,45.6h-69.2v78C467.5,523.2,463.3,527.4,457.2,527.4z M59.8,183c-23.5,0-42.7,19.1-42.7,42.7v167.8
			c0,23.5,19.1,42.7,42.7,42.7h72.1v80.9c0,4.5,2.9,7.4,7.4,7.4h317.9c4.5,0,7.4-2.9,7.4-7.4v-80.9h72.1c23.5,0,42.7-19.1,42.7-42.7
			V225.7c0-23.9-18.7-42.7-42.7-42.7h-36.8v-54.5c0-4.5-2.9-7.4-7.4-7.4h-28V75.6c0-4.5-2.9-7.4-7.4-7.4H139.3
			c-4.5,0-7.4,2.9-7.4,7.4v45.6h-28c-4.5,0-7.4,2.9-7.4,7.4V183H59.8z M449.8,509.7H146.7V347.8h303.2v10.3c0,4.5,2.9,7.4,7.4,7.4
			c4.5,0,7.4-2.9,7.4-7.4v-17.7c0-4.5-2.9-7.4-7.4-7.4H139.3c-4.5,0-7.4,2.9-7.4,7.4v80.9H59.8c-15.4,0-28-12.5-28-28l0.9-167.8
			c0-15.4,12.5-28,28-28h36.8V236h-20c-4.5,0-7.4,2.9-7.4,7.4c0,4.5,2.9,7.4,7.4,7.4H519c4.5,0,7.4-2.9,7.4-7.4
			c0-4.5-2.9-7.4-7.4-7.4h-19.1v-38.3h36.8c15.4,0,28,12.5,28,28v167.8c0,15.4-12.5,28-28,28h-72.1v-28c0-4.5-2.9-7.4-7.4-7.4
			c-4.5,0-7.4,2.9-7.4,7.4V509.7z M149.6,506.8h297.3V393.5c0-6.1,4.2-10.3,10.3-10.3c6.1,0,10.3,4.2,10.3,10.3v25h69.2
			c13.8,0,25-11.2,25-25V225.7c0-13.8-11.2-25-25-25h-33.9v32.4H519c6.1,0,10.3,4.2,10.3,10.3c0,6.1-4.2,10.3-10.3,10.3H77.5
			c-6.1,0-10.3-4.2-10.3-10.3c0-6.1,4.2-10.3,10.3-10.3h17.1v-32.4H60.7c-13.8,0-25,11.2-25,25v0l-0.9,167.8c0,13.8,11.2,25,25,25
			H129v-78c0-6.1,4.2-10.3,10.3-10.3h317.9c6.1,0,10.3,4.2,10.3,10.3v17.7c0,6.1-4.2,10.3-10.3,10.3c-6.1,0-10.3-4.2-10.3-10.3v-7.4
			H149.6V506.8z M485.1,236H146.7V82.9h303.2v107.4c0,4.5,2.9,7.4,7.4,7.4c4.5,0,7.4-2.9,7.4-7.4v-54.5h20.6V236z M149.6,233.1
			h332.6v-94.2h-14.7v51.5c0,6.1-4.2,10.3-10.3,10.3c-6.1,0-10.3-4.2-10.3-10.3V85.9H149.6V233.1z M131.9,236h-20.6V135.9h20.6V236z
			 M114.3,233.1H129v-94.2h-14.7V233.1z"/>
	</g>
	<path class="st0" d="M78.4,305.2c2.6,0,4.4-0.9,6.2-2.6c1.8-1.8,2.6-3.5,2.6-6.2c0-2.6-0.9-4.4-2.6-6.2c-3.5-3.5-8.8-3.5-12.4,0
		c-1.8,1.8-2.6,3.5-2.6,6.2c0,2.6,0.9,4.4,2.6,6.2C73.1,304.3,75.7,305.2,78.4,305.2L78.4,305.2z"/>
	<path class="st0" d="M492.5,305.2c2.6,0,4.4-0.9,6.2-2.6c1.8-1.8,2.6-4.4,2.6-6.2c0-2.6-0.9-4.4-2.6-6.2c-3.5-3.5-8.8-3.5-12.4,0
		c-1.8,1.8-2.6,3.5-2.6,6.2c0,2.6,0.9,4.4,2.6,6.2C488.1,304.3,489.9,305.2,492.5,305.2z"/>
	<path class="st0" d="M404.2,420H192.3c-5.3,0-8.8,3.5-8.8,8.8c0,5.3,3.5,8.8,8.8,8.8h211.9c5.3,0,8.8-3.5,8.8-8.8
		C413,423.5,409.5,420,404.2,420z"/>
	<path class="st0" d="M404.2,464.1h-17.7c-5.3,0-8.8,3.5-8.8,8.8c0,5.3,3.5,8.8,8.8,8.8h17.7c5.3,0,8.8-3.5,8.8-8.8
		C413,467.6,409.5,464.1,404.2,464.1z"/>
	<path class="st0" d="M333.6,464.1H192.3c-5.3,0-8.8,3.5-8.8,8.8c0,5.3,3.5,8.8,8.8,8.8h141.3c5.3,0,8.8-3.5,8.8-8.8
		C342.4,467.6,338.9,464.1,333.6,464.1z"/>
	<path class="st0" d="M192.3,393.5h79.5c5.3,0,8.8-3.5,8.8-8.8c0-5.3-3.5-8.8-8.8-8.8h-79.5c-5.3,0-8.8,3.5-8.8,8.8
		C183.4,389.9,187,393.5,192.3,393.5z"/>
	<path class="st0" d="M404.2,375.8h-79.5c-5.3,0-8.8,3.5-8.8,8.8c0,5.3,3.5,8.8,8.8,8.8h79.5c5.3,0,8.8-3.5,8.8-8.8
		C413,379.3,409.5,375.8,404.2,375.8z"/>
	<path class="st0" d="M413,305.2h44.2c5.3,0,8.8-3.5,8.8-8.8c0-5.3-3.5-8.8-8.8-8.8H413c-5.3,0-8.8,3.5-8.8,8.8
		C404.2,301.6,407.7,305.2,413,305.2z"/>
</g>
</svg>
